HIERARCHY
ROOT root
{
	OFFSET 0.000000 0.000000 0.000000
	CHANNELS 6 Xposition Yposition Zposition Zrotation Yrotation Xrotation
	JOINT lhip
	{
		OFFSET 0.058581 -0.082280 -0.017664
		CHANNELS 3 Zrotation Yrotation Xrotation
		JOINT lknee
		{
			OFFSET 0.043451 -0.386469 0.008037
			CHANNELS 3 Zrotation Yrotation Xrotation
			JOINT lankle
			{
				OFFSET -0.014790 -0.426874 -0.037428
				CHANNELS 3 Zrotation Yrotation Xrotation
				JOINT ltoe
				{
					OFFSET 0.041054 -0.060286 0.122042
					CHANNELS 3 Zrotation Yrotation Xrotation
					End Site
					{
						OFFSET 0.000000 0.000000 0.000000
					}
				}
			}
		}
	}
	JOINT rhip
	{
		OFFSET -0.060310 -0.090513 -0.013543
		CHANNELS 3 Zrotation Yrotation Xrotation
		JOINT rknee
		{
			OFFSET -0.043257 -0.383688 -0.004843
			CHANNELS 3 Zrotation Yrotation Xrotation
			JOINT rankle
			{
				OFFSET 0.019056 -0.420046 -0.034562
				CHANNELS 3 Zrotation Yrotation Xrotation
				JOINT rtoe
				{
					OFFSET -0.034840 -0.062106 0.130323
					CHANNELS 3 Zrotation Yrotation Xrotation
					End Site
					{
						OFFSET 0.000000 0.000000 0.000000
					}
				}
			}
		}
	}
	JOINT lowerback
	{
		OFFSET 0.004439 0.124404 -0.038385
		CHANNELS 3 Zrotation Yrotation Xrotation
		JOINT upperback
		{
			OFFSET 0.004488 0.137956 0.026820
			CHANNELS 3 Zrotation Yrotation Xrotation
			JOINT chest
			{
				OFFSET -0.002265 0.056032 0.002855
				CHANNELS 3 Zrotation Yrotation Xrotation
				JOINT lowerneck
				{
					OFFSET -0.013390 0.211636 -0.033468
					CHANNELS 3 Zrotation Yrotation Xrotation
					JOINT upperneck
					{
						OFFSET 0.010113 0.088937 0.050410
						CHANNELS 3 Zrotation Yrotation Xrotation
						End Site
						{
							OFFSET 0.000000 0.000000 0.000000
						}
					}
				}
				JOINT lclavicle
				{
					OFFSET 0.071702 0.114000 -0.018898
					CHANNELS 3 Zrotation Yrotation Xrotation
					JOINT lshoulder
					{
						OFFSET 0.122921 0.045205 -0.019046
						CHANNELS 3 Zrotation Yrotation Xrotation
						JOINT lelbow
						{
							OFFSET 0.255332 -0.015649 -0.022946
							CHANNELS 3 Zrotation Yrotation Xrotation
							JOINT lwrist
							{
								OFFSET 0.265709 0.012698 -0.007375
								CHANNELS 3 Zrotation Yrotation Xrotation
								End Site
								{
									OFFSET 0.000000 0.000000 0.000000
								}
							}
						}
					}
				}
				JOINT rclavicle
				{
					OFFSET -0.082954 0.112472 -0.023707
					CHANNELS 3 Zrotation Yrotation Xrotation
					JOINT rshoulder
					{
						OFFSET -0.113228 0.046853 -0.008472
						CHANNELS 3 Zrotation Yrotation Xrotation
						JOINT relbow
						{
							OFFSET -0.260127 -0.014369 -0.031269
							CHANNELS 3 Zrotation Yrotation Xrotation
							JOINT rwrist
							{
								OFFSET -0.269108 0.006794 -0.006027
								CHANNELS 3 Zrotation Yrotation Xrotation
								End Site
								{
									OFFSET 0.000000 0.000000 0.000000
								}
							}
						}
					}
				}
			}
		}
	}
}
MOTION
Frames: 10
Frame Time: 0.033333
-0.056750 0.222930 1.012625 94.436267 1.247881 87.973766 2.692416 -2.791764 -4.684005 -0.458262 -11.891978 6.119728 0.270095 12.698885 -3.315425 0.000000 -0.000000 0.000000 0.050140 -2.114837 -1.745231 -1.723210 1.722109 3.210337 0.152889 -13.494994 -0.979316 0.000000 -0.000000 0.000000 -0.931274 1.704900 4.580781 0.401041 -5.407168 9.710867 -0.872099 -1.236342 -5.371629 3.068291 -5.315912 -4.402532 6.398967 -3.031831 -2.023120 -20.645602 -6.177922 2.668840 -58.044365 -12.205979 15.677014 12.743987 -16.141381 -1.729935 -12.160302 -4.275944 11.409710 14.868276 6.205525 -0.653966 64.544028 4.822267 11.857995 -9.238111 20.708773 -3.502361 10.994498 5.886207 -6.709126 
-0.055619 0.223144 1.012601 94.493648 1.205196 88.014040 2.576348 -2.603928 -5.003578 -0.530047 -11.906469 6.802787 0.321601 12.590151 -3.720079 0.000000 -0.000000 0.000000 -0.046225 -2.060914 -2.035611 -1.684432 1.453218 3.878723 0.200393 -13.293712 -1.370740 0.000000 -0.000000 0.000000 -1.145280 1.669886 4.257615 0.337259 -5.224335 10.031985 -0.914236 -1.194683 -5.416268 3.161047 -5.334988 -4.324892 6.273690 -3.129234 -1.833766 -20.914522 -6.116503 2.977111 -58.979131 -11.322292 16.397296 12.199791 -18.535298 -1.077571 -12.779166 -4.643972 11.467686 15.237037 6.602126 -0.278096 65.572338 4.785599 12.696795 -8.992571 21.546978 -2.142118 11.604761 5.859909 -6.270725 
-0.053994 0.223218 1.012564 94.479154 1.309849 87.877427 2.688066 -2.891237 -4.926780 -0.637666 -11.647794 7.214775 0.588855 12.653437 -4.096318 0.000000 -0.000000 0.000000 0.042533 -2.049852 -2.011828 -1.645755 1.428791 4.374386 0.155607 -13.174769 -1.705127 0.000000 -0.000000 0.000000 -1.229963 1.805216 4.206620 0.381201 -5.170114 10.466020 -0.981675 -1.094037 -5.701199 3.296551 -5.302396 -4.473357 6.073568 -3.172041 -1.357667 -20.876095 -6.054386 3.393488 -60.070506 -10.473056 17.571384 11.068047 -21.152725 0.721215 -13.878218 -4.095572 11.891521 15.560017 6.858581 0.208825 66.714941 5.037247 13.766495 -8.610001 21.784659 -0.856102 12.782792 5.385048 -5.805882 
-0.052097 0.223431 1.012685 94.273853 1.310856 87.593057 2.657818 -3.214690 -4.487760 -0.700853 -11.522996 7.357947 0.944763 12.928005 -4.273242 0.000000 -0.000000 0.000000 0.047998 -1.972295 -1.864254 -1.693924 1.555485 4.916848 0.328062 -13.204446 -1.999964 0.000000 -0.000000 0.000000 -1.403218 2.102016 4.236680 0.391464 -4.919217 10.804510 -1.024596 -1.031008 -5.783654 3.373283 -5.406792 -4.373621 5.971382 -3.318779 -1.286828 -20.844175 -6.032360 3.573020 -61.585201 -9.774568 19.001680 10.251052 -22.615791 3.678225 -14.902334 -3.401423 12.488084 15.797446 7.206007 0.487597 68.033086 5.101536 15.192551 -8.162261 21.561844 1.050772 13.337252 5.136395 -5.396640 
-0.051089 0.223878 1.012833 94.605798 1.374039 87.499613 2.690963 -3.310990 -4.678333 -0.895397 -11.572947 7.999654 0.985666 12.796867 -4.592631 0.000000 -0.000000 0.000000 0.035802 -1.904823 -1.811312 -1.651347 1.204328 5.306369 0.215959 -13.303187 -2.289813 0.000000 -0.000000 0.000000 -1.439718 2.087774 4.367405 0.399148 -4.859545 10.942318 -1.075674 -1.014580 -5.913306 3.383158 -5.549982 -4.362310 5.869494 -3.269995 -1.145128 -20.931913 -6.122010 3.880204 -62.931779 -9.183271 20.232562 9.440408 -23.735082 6.518251 -15.904212 -3.340522 13.077455 15.957755 7.502412 0.679185 69.279669 5.179698 16.236694 -7.470577 21.197090 2.592781 14.080070 5.024524 -5.437285 
-0.049848 0.224098 1.013187 94.839242 1.451242 87.425224 2.765683 -3.573902 -4.649296 -0.965392 -11.222614 8.297161 1.150591 12.348534 -4.788777 0.000000 -0.000000 0.000000 0.084559 -1.812683 -1.589022 -1.680654 0.749390 5.345942 0.053956 -13.137879 -2.483995 0.000000 -0.000000 0.000000 -1.459898 2.054125 4.572187 0.307150 -4.821959 11.150878 -1.003848 -1.081455 -6.280745 3.591194 -5.366417 -4.501115 5.639993 -3.468795 -1.020195 -20.926180 -5.763583 3.849258 -64.331822 -9.044447 19.738608 12.270030 -24.207934 3.599439 -21.877396 -0.880511 14.379181 16.100539 7.553228 0.966531 70.149050 5.687601 16.362688 -8.554927 20.645236 1.044480 21.689373 3.866854 -6.190307 
-0.048606 0.224811 1.013271 95.084496 1.383714 87.449231 2.596696 -3.656650 -4.743137 -0.994531 -11.428945 8.538819 1.097979 12.371684 -4.954042 0.000000 -0.000000 0.000000 -0.044024 -1.964799 -1.721404 -1.705051 0.671552 5.790045 0.083988 -13.216746 -2.716077 0.000000 -0.000000 0.000000 -1.549799 2.084198 4.616984 0.272325 -4.753810 10.938230 -1.017090 -1.132901 -6.086105 3.445509 -5.489469 -4.357165 5.605815 -3.451986 -1.067694 -20.739591 -5.370876 3.497298 -64.511582 -9.435212 19.423308 13.240713 -23.309189 2.398842 -20.874241 -0.898734 13.705700 16.010943 7.246819 0.808485 69.889117 6.038695 16.259131 -8.675410 19.941937 0.826249 20.537534 3.800370 -6.107531 
-0.046903 0.225263 1.013014 95.120632 1.441860 87.408139 2.664379 -3.529528 -4.584003 -1.064625 -11.661165 8.531948 0.871734 12.507382 -5.102032 0.000000 -0.000000 0.000000 0.007718 -2.160897 -1.716367 -1.729837 0.773873 6.085146 0.153451 -13.178379 -2.944656 0.000000 -0.000000 0.000000 -1.607420 2.258924 4.498701 0.256217 -4.494605 10.683417 -0.995078 -0.974113 -5.573516 3.425357 -5.559682 -4.098383 5.652439 -3.789255 -1.348424 -20.711605 -4.981028 2.983038 -64.222899 -10.042401 18.956401 12.764668 -21.883154 2.134262 -17.278974 -2.533509 13.817967 15.844892 7.106799 0.657947 69.082402 6.129963 15.793854 -7.721454 19.541437 1.597221 16.601277 4.705957 -5.051423 
-0.045758 0.225714 1.012808 95.308061 1.537238 87.454815 2.822483 -3.569174 -4.612617 -1.232481 -11.837933 8.536342 0.867551 12.609040 -5.104830 0.000000 -0.000000 0.000000 0.090595 -2.209955 -1.735789 -1.697099 0.891739 6.185686 0.182547 -13.502011 -2.983365 0.000000 -0.000000 0.000000 -1.574512 2.386993 4.566182 0.214351 -4.470607 10.451862 -0.967736 -0.904604 -5.357140 3.304366 -5.714117 -4.076377 5.737203 -3.823891 -1.155690 -20.569412 -5.262393 2.978997 -63.624325 -10.324218 18.371788 12.847675 -21.003790 0.761909 -17.191332 -2.819864 12.049744 15.704982 7.361951 0.627640 68.355837 5.754957 15.376721 -7.696121 19.925372 1.453727 16.020939 4.719881 -5.206425 
-0.044999 0.226518 1.012982 95.721250 1.404423 87.705664 2.635990 -3.282579 -5.111427 -1.347417 -12.163939 8.944146 0.745947 12.291794 -5.179759 0.000000 -0.000000 0.000000 -0.115450 -2.287787 -2.082315 -1.652438 0.691763 6.582328 0.082709 -13.617595 -3.216589 0.000000 -0.000000 0.000000 -1.756581 2.184927 4.398296 0.134436 -4.562878 10.719125 -1.003333 -0.907672 -5.666911 3.188259 -5.821089 -4.065204 5.956214 -3.754607 -1.155469 -20.517201 -5.681148 3.072769 -62.528799 -10.154072 18.049854 12.963480 -20.708885 0.218545 -17.697694 -3.041202 10.863241 15.603017 7.857758 0.529243 67.883326 5.340733 15.484201 -7.911314 19.895675 1.273257 15.810786 4.992674 -5.589381 
